# Blender 4.3.2
# www.blender.org
o Plane.001
v -1.777320 0.000000 2.500000
v 1.777320 0.000000 2.500000
v -1.777320 0.000000 -2.500000
v 1.777320 0.000000 -2.500000
v -1.777320 0.000000 2.500000
v 1.777320 0.000000 2.500000
v -1.777320 0.000000 -2.500000
v 1.777320 0.000000 -2.500000
vn -0.0000 1.0000 -0.0000
vn -0.0000 -1.0000 -0.0000
vt 0.000100 0.999900
vt 0.000100 0.000100
vt 0.499900 0.000100
vt 0.499900 0.999900
vt 0.999900 0.999900
vt 0.999900 0.000100
vt 0.500100 0.000100
vt 0.500100 0.999900
s 0
f 1/1/1 2/2/1 4/3/1 3/4/1
f 5/5/2 7/6/2 8/7/2 6/8/2
